<svg width="150" height="150" viewBox="0 0 150 150" fill="none" xmlns="http://www.w3.org/2000/svg">
<path d="M12 13C12 10.2386 14.2386 8 17 8H127C129.761 8 132 10.2386 132 13V123C132 125.761 129.761 128 127 128H17C14.2386 128 12 125.761 12 123V13Z" fill="#51B1FF"/>
<path d="M57 61C57 58.2386 59.2386 56 62 56H132C134.761 56 137 58.2386 137 61V131C137 133.761 134.761 136 132 136H62C59.2386 136 57 133.761 57 131V61Z" fill="#0886ED"/>
<path d="M95.652 73.0909H107.932V105.928C107.932 109.723 107.029 113.029 105.222 115.847C103.416 118.647 100.897 120.818 97.6655 122.359C94.4339 123.884 90.6804 124.646 86.4048 124.646C82.0795 124.646 78.3011 123.884 75.0696 122.359C71.8381 120.818 69.3274 118.647 67.5376 115.847C65.7479 113.029 64.853 109.723 64.853 105.928V73.0909H77.1577V104.859C77.1577 106.616 77.5388 108.182 78.3011 109.558C79.08 110.933 80.1655 112.01 81.5575 112.789C82.9496 113.568 84.5653 113.957 86.4048 113.957C88.2443 113.957 89.8518 113.568 91.2273 112.789C92.6193 112.01 93.7048 110.933 94.4837 109.558C95.2625 108.182 95.652 106.616 95.652 104.859V73.0909Z" fill="white"/>
<path d="M127.949 73.0909V124H115.644V73.0909H127.949Z" fill="white"/>
<path d="M12 13C12 10.2386 14.2386 8 17 8H47C49.7614 8 52 10.2386 52 13V43C52 45.7614 49.7614 48 47 48H17C14.2386 48 12 45.7614 12 43V13Z" fill="#5B99CC"/>
<path d="M34.7841 14L43.5955 32.962L44.5114 18.4988L34.7841 14Z" fill="white"/>
<path d="M37.0572 33.9253H26.4542L25.1005 37.2054L31.7557 41L38.4108 37.2054L37.0572 33.9253Z" fill="white"/>
<path d="M28.2712 29.671H35.2438L31.7557 21.1951L28.2712 29.671Z" fill="white"/>
<path d="M28.7273 14L19 18.4988L19.9158 32.962L28.7273 14Z" fill="white"/>
</svg>
